<svg xmlns="http://www.w3.org/2000/svg" viewBox="0 0 301.96 22.87"><defs><style>.cls-1{fill:#e53474;}.cls-2{fill:#231f20;}.cls-3{fill:none;}.cls-4{fill:#fff;}</style></defs><title>Recurso 2</title><g id="Capa_2" data-name="Capa 2"><g id="Capa_1-2" data-name="Capa 1"><path class="cls-1" d="M132.76,22.79V.12h5.84l6.55,14.33L151.72.12h5.84V22.79h-5.79V12.12l-4.71,9.8h-3.81l-4.7-9.8V22.79Z"/><path class="cls-1" d="M209.6.12a10.1,10.1,0,0,1,3.78.65,7.13,7.13,0,0,1,4.2,4.44,9.87,9.87,0,0,1,.51,3.19,10,10,0,0,1-.28,2.33,7.93,7.93,0,0,1-.83,2.11,7.59,7.59,0,0,1-1.39,1.77,7.44,7.44,0,0,1-2,1.32l4.91,6.86h-7l-4.3-6.07h-3v6.07h-5.79V.12Zm-5.29,5.29v6.05h5a4.05,4.05,0,0,0,1.48-.25,2.75,2.75,0,0,0,1-.65,2.56,2.56,0,0,0,.55-1,3.67,3.67,0,0,0,.18-1.14,3.32,3.32,0,0,0-.73-2.18,3.07,3.07,0,0,0-2.47-.87Z"/><path class="cls-1" d="M227.48.12h5.81V7.94l7-7.82h7.5l-9,9.74,9.42,12.93h-7.21l-6.25-8.54L233.29,16v6.83h-5.81Z"/><path class="cls-1" d="M256.49.12h17.42V5.76H262.3V9h9.54v5.27H262.3v2.9h11.61v5.61H256.49Z"/><path class="cls-1" d="M282,.12H302V5.76h-7.07v17h-5.81v-17H282Z"/><path class="cls-2" d="M32.62.19h6V17.26H50v5.61H32.62Z"/><path class="cls-2" d="M52.5.19h20V5.83H65.38v17H59.57v-17H52.5Z"/><path class="cls-2" d="M79.78,0,96.6.09l0,4.82H85.24l0,4L95.13,9l.07,5.3h-10V18H96.61v4.8H79.78Z"/><polygon class="cls-3" points="11.35 11.92 12.76 11.92 12.76 14.24 15.81 14.24 13.12 7.58 11.35 11.92"/><polygon points="16.25 0.14 9.99 0.14 4.8 11.92 11.35 11.92 13.12 7.58 15.81 14.24 19.32 22.81 26.21 22.81 16.25 0.14"/><polygon class="cls-1" points="0 22.81 6.89 22.81 9.41 16.66 2.71 16.66 0 22.81"/><polygon class="cls-4" points="3.2 11.92 1.45 16.66 2.71 16.66 4.8 11.92 3.2 11.92"/><polygon class="cls-4" points="11.35 11.92 10.4 14.24 12.76 14.24 12.76 11.92 11.35 11.92"/><polygon class="cls-4" points="9.41 16.66 12.76 16.66 12.76 14.24 10.4 14.24 9.41 16.66"/><path class="cls-2" d="M120.26,16a7.39,7.39,0,0,0,2-1.32,7.91,7.91,0,0,0,1.4-1.78,8.36,8.36,0,0,0,.83-2.1,10.25,10.25,0,0,0-.24-5.53A7.08,7.08,0,0,0,120,.85a9.83,9.83,0,0,0-3.78-.66H105.17V5.5h10.75a3,3,0,0,1,2.47.87,3.26,3.26,0,0,1,.73,2.18A3.92,3.92,0,0,1,119,9.67a2.44,2.44,0,0,1-.56,1,2.82,2.82,0,0,1-1,.66,4.12,4.12,0,0,1-1.49.24H105.17V22.87H111V16.79h3l4.3,6.08h7Z"/><polygon class="cls-3" points="176.48 11.98 177.89 11.98 177.89 14.29 180.94 14.29 178.26 7.64 176.48 11.98"/><polygon points="181.39 0.19 175.13 0.19 169.93 11.98 176.48 11.98 178.26 7.64 180.94 14.29 184.45 22.87 191.35 22.87 181.39 0.19"/><polygon class="cls-1" points="165.13 22.87 172.03 22.87 174.54 16.72 167.84 16.72 165.13 22.87"/><polygon class="cls-4" points="168.33 11.98 166.59 16.72 167.84 16.72 169.93 11.98 168.33 11.98"/><polygon class="cls-4" points="176.48 11.98 175.54 14.29 177.89 14.29 177.89 11.98 176.48 11.98"/><polygon class="cls-4" points="174.54 16.72 177.89 16.72 177.89 14.29 175.54 14.29 174.54 16.72"/></g></g></svg>