<svg xmlns="http://www.w3.org/2000/svg" viewBox="0 0 65.2 65.2"><defs><style>.cls-1{fill:#fff;}.cls-2{fill:none;}.cls-3{fill:#e53474;}</style></defs><title>Recurso 4</title><g id="Capa_2" data-name="Capa 2"><g id="Capa_1-2" data-name="Capa 1"><rect class="cls-1" width="65.2" height="65.2"/><polygon class="cls-2" points="19.83 33.05 21.24 33.05 21.24 35.36 24.3 35.36 21.61 28.7 19.83 33.05"/><polygon points="24.74 21.26 18.48 21.26 18.48 21.26 21.61 28.7 21.61 28.7 24.3 35.36 27.81 43.94 34.7 43.94 24.74 21.26"/><polygon class="cls-2" points="45.36 32.15 43.95 32.15 43.95 29.84 40.9 29.84 43.59 36.49 45.36 32.15"/><polygon points="40.46 43.94 46.72 43.94 46.72 43.94 43.59 36.49 43.59 36.49 40.9 29.84 37.39 21.26 30.5 21.26 40.46 43.94"/><rect class="cls-3" x="9.26" y="37.76" width="6.17" height="6.17"/><rect class="cls-3" x="48.89" y="21.19" width="6.17" height="6.17"/></g></g></svg>